<?xml version="1.0" standalone="no"?>
<!DOCTYPE svg PUBLIC "-//W3C//DTD SVG 20010904//EN"
 "http://www.w3.org/TR/2001/REC-SVG-20010904/DTD/svg10.dtd">
<svg version="1.0" xmlns="http://www.w3.org/2000/svg"
 width="174.000000pt" height="174.000000pt" viewBox="0 0 174.000000 174.000000"
 preserveAspectRatio="xMidYMid meet">
<metadata>
Created by potrace 1.14, written by Peter Selinger 2001-2017
</metadata>
<g transform="translate(0.000000,174.000000) scale(0.100000,-0.100000)"
fill="#000000" stroke="none">
<path d="M387 1729 c-104 -24 -196 -99 -244 -197 l-28 -57 -3 -535 c-3 -582 0
-626 49 -727 53 -109 141 -167 296 -194 105 -19 594 -16 713 4 233 40 372 124
445 270 l35 70 0 167 c0 124 -4 180 -16 221 -39 131 -107 215 -220 270 l-65
32 8 46 c14 81 8 231 -12 291 -64 196 -226 307 -495 340 -101 12 -410 12 -463
-1z m541 -183 c202 -51 289 -175 267 -381 l-7 -66 -36 8 c-60 12 -223 8 -277
-6 -109 -30 -200 -95 -242 -173 -25 -48 -25 -179 1 -232 48 -96 138 -150 252
-150 59 0 81 5 135 31 35 18 86 52 112 78 47 45 128 160 147 209 8 23 12 24
38 15 42 -15 110 -75 131 -118 31 -61 44 -140 39 -252 -5 -120 -23 -167 -85
-219 -103 -87 -244 -112 -623 -114 -316 -1 -374 9 -436 71 -66 66 -69 87 -69
643 0 272 4 512 8 533 10 47 60 104 112 129 36 17 59 19 255 14 148 -3 234 -9
278 -20z m190 -611 c9 -8 -42 -87 -88 -138 -57 -62 -121 -94 -167 -82 -46 11
-83 53 -83 94 1 61 53 106 149 128 48 11 178 10 189 -2z"/>
</g>
</svg>
